<?xml version="1.0" encoding="UTF-8" ?>
<svg version="1.1" width="48" height="48" xmlns="http://www.w3.org/2000/svg" shape-rendering="crispEdges">
<rect x="46" y="0" width="1" height="1" fill="#EFA3BE" />
<rect x="47" y="0" width="1" height="1" fill="#EFA3BE" />
<rect x="46" y="1" width="1" height="1" fill="#EFA3BE" />
<rect x="47" y="1" width="1" height="1" fill="#EFA3BE" />
<rect x="36" y="2" width="1" height="1" fill="#000000" />
<rect x="37" y="2" width="1" height="1" fill="#000000" />
<rect x="38" y="2" width="1" height="1" fill="#000000" />
<rect x="39" y="2" width="1" height="1" fill="#000000" />
<rect x="40" y="2" width="1" height="1" fill="#000000" />
<rect x="41" y="2" width="1" height="1" fill="#000000" />
<rect x="46" y="2" width="1" height="1" fill="#EFA3BE" />
<rect x="47" y="2" width="1" height="1" fill="#EFA3BE" />
<rect x="35" y="3" width="1" height="1" fill="#000000" />
<rect x="36" y="3" width="1" height="1" fill="#000000" />
<rect x="37" y="3" width="1" height="1" fill="#D95763" />
<rect x="38" y="3" width="1" height="1" fill="#D95763" />
<rect x="39" y="3" width="1" height="1" fill="#D95763" />
<rect x="40" y="3" width="1" height="1" fill="#D95763" />
<rect x="41" y="3" width="1" height="1" fill="#000000" />
<rect x="42" y="3" width="1" height="1" fill="#000000" />
<rect x="46" y="3" width="1" height="1" fill="#EFA3BE" />
<rect x="47" y="3" width="1" height="1" fill="#EFA3BE" />
<rect x="34" y="4" width="1" height="1" fill="#000000" />
<rect x="35" y="4" width="1" height="1" fill="#000000" />
<rect x="36" y="4" width="1" height="1" fill="#FFFFFF" />
<rect x="37" y="4" width="1" height="1" fill="#FFFFFF" />
<rect x="38" y="4" width="1" height="1" fill="#FFFFFF" />
<rect x="39" y="4" width="1" height="1" fill="#D95763" />
<rect x="40" y="4" width="1" height="1" fill="#D95763" />
<rect x="41" y="4" width="1" height="1" fill="#D95763" />
<rect x="42" y="4" width="1" height="1" fill="#000000" />
<rect x="46" y="4" width="1" height="1" fill="#EFA3BE" />
<rect x="47" y="4" width="1" height="1" fill="#EFA3BE" />
<rect x="33" y="5" width="1" height="1" fill="#000000" />
<rect x="34" y="5" width="1" height="1" fill="#000000" />
<rect x="35" y="5" width="1" height="1" fill="#D95763" />
<rect x="36" y="5" width="1" height="1" fill="#FFFFFF" />
<rect x="37" y="5" width="1" height="1" fill="#FFFFFF" />
<rect x="38" y="5" width="1" height="1" fill="#D95763" />
<rect x="39" y="5" width="1" height="1" fill="#D95763" />
<rect x="40" y="5" width="1" height="1" fill="#D95763" />
<rect x="41" y="5" width="1" height="1" fill="#D95763" />
<rect x="42" y="5" width="1" height="1" fill="#D95763" />
<rect x="43" y="5" width="1" height="1" fill="#000000" />
<rect x="46" y="5" width="1" height="1" fill="#EFA3BE" />
<rect x="47" y="5" width="1" height="1" fill="#EFA3BE" />
<rect x="33" y="6" width="1" height="1" fill="#000000" />
<rect x="34" y="6" width="1" height="1" fill="#D95763" />
<rect x="35" y="6" width="1" height="1" fill="#D95763" />
<rect x="36" y="6" width="1" height="1" fill="#D95763" />
<rect x="37" y="6" width="1" height="1" fill="#D95763" />
<rect x="38" y="6" width="1" height="1" fill="#D95763" />
<rect x="39" y="6" width="1" height="1" fill="#D95763" />
<rect x="40" y="6" width="1" height="1" fill="#D95763" />
<rect x="41" y="6" width="1" height="1" fill="#D95763" />
<rect x="42" y="6" width="1" height="1" fill="#D95763" />
<rect x="43" y="6" width="1" height="1" fill="#000000" />
<rect x="46" y="6" width="1" height="1" fill="#EFA3BE" />
<rect x="47" y="6" width="1" height="1" fill="#EFA3BE" />
<rect x="32" y="7" width="1" height="1" fill="#000000" />
<rect x="33" y="7" width="1" height="1" fill="#000000" />
<rect x="34" y="7" width="1" height="1" fill="#D9A066" />
<rect x="35" y="7" width="1" height="1" fill="#D95763" />
<rect x="36" y="7" width="1" height="1" fill="#D95763" />
<rect x="37" y="7" width="1" height="1" fill="#D95763" />
<rect x="38" y="7" width="1" height="1" fill="#D95763" />
<rect x="39" y="7" width="1" height="1" fill="#D95763" />
<rect x="40" y="7" width="1" height="1" fill="#D95763" />
<rect x="41" y="7" width="1" height="1" fill="#D95763" />
<rect x="42" y="7" width="1" height="1" fill="#D95763" />
<rect x="43" y="7" width="1" height="1" fill="#000000" />
<rect x="46" y="7" width="1" height="1" fill="#EFA3BE" />
<rect x="47" y="7" width="1" height="1" fill="#EFA3BE" />
<rect x="31" y="8" width="1" height="1" fill="#000000" />
<rect x="32" y="8" width="1" height="1" fill="#000000" />
<rect x="33" y="8" width="1" height="1" fill="#D9A066" />
<rect x="34" y="8" width="1" height="1" fill="#D9A066" />
<rect x="35" y="8" width="1" height="1" fill="#D9A066" />
<rect x="36" y="8" width="1" height="1" fill="#D95763" />
<rect x="37" y="8" width="1" height="1" fill="#D95763" />
<rect x="38" y="8" width="1" height="1" fill="#D95763" />
<rect x="39" y="8" width="1" height="1" fill="#D95763" />
<rect x="40" y="8" width="1" height="1" fill="#D95763" />
<rect x="41" y="8" width="1" height="1" fill="#D95763" />
<rect x="42" y="8" width="1" height="1" fill="#000000" />
<rect x="46" y="8" width="1" height="1" fill="#EFA3BE" />
<rect x="47" y="8" width="1" height="1" fill="#EFA3BE" />
<rect x="31" y="9" width="1" height="1" fill="#000000" />
<rect x="32" y="9" width="1" height="1" fill="#D9A066" />
<rect x="33" y="9" width="1" height="1" fill="#D9A066" />
<rect x="34" y="9" width="1" height="1" fill="#D9A066" />
<rect x="35" y="9" width="1" height="1" fill="#D9A066" />
<rect x="36" y="9" width="1" height="1" fill="#8F563B" />
<rect x="37" y="9" width="1" height="1" fill="#8F563B" />
<rect x="38" y="9" width="1" height="1" fill="#8F563B" />
<rect x="39" y="9" width="1" height="1" fill="#D95763" />
<rect x="40" y="9" width="1" height="1" fill="#D95763" />
<rect x="41" y="9" width="1" height="1" fill="#D95763" />
<rect x="42" y="9" width="1" height="1" fill="#000000" />
<rect x="46" y="9" width="1" height="1" fill="#EFA3BE" />
<rect x="47" y="9" width="1" height="1" fill="#EFA3BE" />
<rect x="29" y="10" width="1" height="1" fill="#000000" />
<rect x="30" y="10" width="1" height="1" fill="#000000" />
<rect x="31" y="10" width="1" height="1" fill="#D9A066" />
<rect x="32" y="10" width="1" height="1" fill="#D9A066" />
<rect x="33" y="10" width="1" height="1" fill="#D9A066" />
<rect x="34" y="10" width="1" height="1" fill="#D9A066" />
<rect x="35" y="10" width="1" height="1" fill="#8F563B" />
<rect x="36" y="10" width="1" height="1" fill="#8F563B" />
<rect x="37" y="10" width="1" height="1" fill="#8F563B" />
<rect x="38" y="10" width="1" height="1" fill="#8F563B" />
<rect x="39" y="10" width="1" height="1" fill="#8F563B" />
<rect x="40" y="10" width="1" height="1" fill="#D95763" />
<rect x="41" y="10" width="1" height="1" fill="#000000" />
<rect x="42" y="10" width="1" height="1" fill="#000000" />
<rect x="46" y="10" width="1" height="1" fill="#EFA3BE" />
<rect x="47" y="10" width="1" height="1" fill="#EFA3BE" />
<rect x="28" y="11" width="1" height="1" fill="#000000" />
<rect x="29" y="11" width="1" height="1" fill="#000000" />
<rect x="30" y="11" width="1" height="1" fill="#D9A066" />
<rect x="31" y="11" width="1" height="1" fill="#D9A066" />
<rect x="32" y="11" width="1" height="1" fill="#D9A066" />
<rect x="33" y="11" width="1" height="1" fill="#D9A066" />
<rect x="34" y="11" width="1" height="1" fill="#8F563B" />
<rect x="35" y="11" width="1" height="1" fill="#8F563B" />
<rect x="36" y="11" width="1" height="1" fill="#8F563B" />
<rect x="37" y="11" width="1" height="1" fill="#8F563B" />
<rect x="38" y="11" width="1" height="1" fill="#8F563B" />
<rect x="39" y="11" width="1" height="1" fill="#000000" />
<rect x="40" y="11" width="1" height="1" fill="#000000" />
<rect x="41" y="11" width="1" height="1" fill="#000000" />
<rect x="46" y="11" width="1" height="1" fill="#EFA3BE" />
<rect x="47" y="11" width="1" height="1" fill="#EFA3BE" />
<rect x="28" y="12" width="1" height="1" fill="#000000" />
<rect x="29" y="12" width="1" height="1" fill="#D9A066" />
<rect x="30" y="12" width="1" height="1" fill="#D9A066" />
<rect x="31" y="12" width="1" height="1" fill="#D9A066" />
<rect x="32" y="12" width="1" height="1" fill="#D9A066" />
<rect x="33" y="12" width="1" height="1" fill="#8F563B" />
<rect x="34" y="12" width="1" height="1" fill="#8F563B" />
<rect x="35" y="12" width="1" height="1" fill="#8F563B" />
<rect x="36" y="12" width="1" height="1" fill="#8F563B" />
<rect x="37" y="12" width="1" height="1" fill="#8F563B" />
<rect x="38" y="12" width="1" height="1" fill="#000000" />
<rect x="39" y="12" width="1" height="1" fill="#000000" />
<rect x="46" y="12" width="1" height="1" fill="#EFA3BE" />
<rect x="47" y="12" width="1" height="1" fill="#EFA3BE" />
<rect x="26" y="13" width="1" height="1" fill="#000000" />
<rect x="27" y="13" width="1" height="1" fill="#000000" />
<rect x="28" y="13" width="1" height="1" fill="#D9A066" />
<rect x="29" y="13" width="1" height="1" fill="#D9A066" />
<rect x="30" y="13" width="1" height="1" fill="#D9A066" />
<rect x="31" y="13" width="1" height="1" fill="#D9A066" />
<rect x="32" y="13" width="1" height="1" fill="#8F563B" />
<rect x="33" y="13" width="1" height="1" fill="#8F563B" />
<rect x="34" y="13" width="1" height="1" fill="#8F563B" />
<rect x="35" y="13" width="1" height="1" fill="#8F563B" />
<rect x="36" y="13" width="1" height="1" fill="#8F563B" />
<rect x="37" y="13" width="1" height="1" fill="#000000" />
<rect x="38" y="13" width="1" height="1" fill="#000000" />
<rect x="46" y="13" width="1" height="1" fill="#EFA3BE" />
<rect x="47" y="13" width="1" height="1" fill="#EFA3BE" />
<rect x="25" y="14" width="1" height="1" fill="#000000" />
<rect x="26" y="14" width="1" height="1" fill="#D9A066" />
<rect x="27" y="14" width="1" height="1" fill="#D9A066" />
<rect x="28" y="14" width="1" height="1" fill="#D9A066" />
<rect x="29" y="14" width="1" height="1" fill="#D9A066" />
<rect x="30" y="14" width="1" height="1" fill="#D9A066" />
<rect x="31" y="14" width="1" height="1" fill="#8F563B" />
<rect x="32" y="14" width="1" height="1" fill="#8F563B" />
<rect x="33" y="14" width="1" height="1" fill="#8F563B" />
<rect x="34" y="14" width="1" height="1" fill="#8F563B" />
<rect x="35" y="14" width="1" height="1" fill="#8F563B" />
<rect x="36" y="14" width="1" height="1" fill="#8F563B" />
<rect x="37" y="14" width="1" height="1" fill="#000000" />
<rect x="46" y="14" width="1" height="1" fill="#EFA3BE" />
<rect x="47" y="14" width="1" height="1" fill="#EFA3BE" />
<rect x="24" y="15" width="1" height="1" fill="#000000" />
<rect x="25" y="15" width="1" height="1" fill="#000000" />
<rect x="26" y="15" width="1" height="1" fill="#D9A066" />
<rect x="27" y="15" width="1" height="1" fill="#D9A066" />
<rect x="28" y="15" width="1" height="1" fill="#D9A066" />
<rect x="29" y="15" width="1" height="1" fill="#D9A066" />
<rect x="30" y="15" width="1" height="1" fill="#8F563B" />
<rect x="31" y="15" width="1" height="1" fill="#8F563B" />
<rect x="32" y="15" width="1" height="1" fill="#8F563B" />
<rect x="33" y="15" width="1" height="1" fill="#8F563B" />
<rect x="34" y="15" width="1" height="1" fill="#8F563B" />
<rect x="35" y="15" width="1" height="1" fill="#8F563B" />
<rect x="36" y="15" width="1" height="1" fill="#000000" />
<rect x="37" y="15" width="1" height="1" fill="#000000" />
<rect x="46" y="15" width="1" height="1" fill="#EFA3BE" />
<rect x="47" y="15" width="1" height="1" fill="#EFA3BE" />
<rect x="23" y="16" width="1" height="1" fill="#000000" />
<rect x="24" y="16" width="1" height="1" fill="#000000" />
<rect x="25" y="16" width="1" height="1" fill="#D9A066" />
<rect x="26" y="16" width="1" height="1" fill="#D9A066" />
<rect x="27" y="16" width="1" height="1" fill="#D9A066" />
<rect x="28" y="16" width="1" height="1" fill="#D9A066" />
<rect x="29" y="16" width="1" height="1" fill="#8F563B" />
<rect x="30" y="16" width="1" height="1" fill="#8F563B" />
<rect x="31" y="16" width="1" height="1" fill="#8F563B" />
<rect x="32" y="16" width="1" height="1" fill="#8F563B" />
<rect x="33" y="16" width="1" height="1" fill="#8F563B" />
<rect x="34" y="16" width="1" height="1" fill="#8F563B" />
<rect x="35" y="16" width="1" height="1" fill="#000000" />
<rect x="36" y="16" width="1" height="1" fill="#000000" />
<rect x="46" y="16" width="1" height="1" fill="#EFA3BE" />
<rect x="47" y="16" width="1" height="1" fill="#EFA3BE" />
<rect x="22" y="17" width="1" height="1" fill="#000000" />
<rect x="23" y="17" width="1" height="1" fill="#D9A066" />
<rect x="24" y="17" width="1" height="1" fill="#D9A066" />
<rect x="25" y="17" width="1" height="1" fill="#D9A066" />
<rect x="26" y="17" width="1" height="1" fill="#D9A066" />
<rect x="27" y="17" width="1" height="1" fill="#D9A066" />
<rect x="28" y="17" width="1" height="1" fill="#8F563B" />
<rect x="29" y="17" width="1" height="1" fill="#8F563B" />
<rect x="30" y="17" width="1" height="1" fill="#8F563B" />
<rect x="31" y="17" width="1" height="1" fill="#8F563B" />
<rect x="32" y="17" width="1" height="1" fill="#8F563B" />
<rect x="33" y="17" width="1" height="1" fill="#8F563B" />
<rect x="34" y="17" width="1" height="1" fill="#000000" />
<rect x="35" y="17" width="1" height="1" fill="#000000" />
<rect x="46" y="17" width="1" height="1" fill="#EFA3BE" />
<rect x="47" y="17" width="1" height="1" fill="#EFA3BE" />
<rect x="21" y="18" width="1" height="1" fill="#000000" />
<rect x="22" y="18" width="1" height="1" fill="#000000" />
<rect x="23" y="18" width="1" height="1" fill="#D9A066" />
<rect x="24" y="18" width="1" height="1" fill="#D9A066" />
<rect x="25" y="18" width="1" height="1" fill="#D9A066" />
<rect x="26" y="18" width="1" height="1" fill="#D9A066" />
<rect x="27" y="18" width="1" height="1" fill="#8F563B" />
<rect x="28" y="18" width="1" height="1" fill="#8F563B" />
<rect x="29" y="18" width="1" height="1" fill="#8F563B" />
<rect x="30" y="18" width="1" height="1" fill="#8F563B" />
<rect x="31" y="18" width="1" height="1" fill="#8F563B" />
<rect x="32" y="18" width="1" height="1" fill="#8F563B" />
<rect x="33" y="18" width="1" height="1" fill="#000000" />
<rect x="34" y="18" width="1" height="1" fill="#000000" />
<rect x="46" y="18" width="1" height="1" fill="#EFA3BE" />
<rect x="47" y="18" width="1" height="1" fill="#EFA3BE" />
<rect x="20" y="19" width="1" height="1" fill="#000000" />
<rect x="21" y="19" width="1" height="1" fill="#000000" />
<rect x="22" y="19" width="1" height="1" fill="#D9A066" />
<rect x="23" y="19" width="1" height="1" fill="#D9A066" />
<rect x="24" y="19" width="1" height="1" fill="#D9A066" />
<rect x="25" y="19" width="1" height="1" fill="#D9A066" />
<rect x="26" y="19" width="1" height="1" fill="#8F563B" />
<rect x="27" y="19" width="1" height="1" fill="#8F563B" />
<rect x="28" y="19" width="1" height="1" fill="#8F563B" />
<rect x="29" y="19" width="1" height="1" fill="#8F563B" />
<rect x="30" y="19" width="1" height="1" fill="#8F563B" />
<rect x="31" y="19" width="1" height="1" fill="#8F563B" />
<rect x="32" y="19" width="1" height="1" fill="#000000" />
<rect x="33" y="19" width="1" height="1" fill="#000000" />
<rect x="46" y="19" width="1" height="1" fill="#EFA3BE" />
<rect x="47" y="19" width="1" height="1" fill="#EFA3BE" />
<rect x="19" y="20" width="1" height="1" fill="#000000" />
<rect x="20" y="20" width="1" height="1" fill="#000000" />
<rect x="21" y="20" width="1" height="1" fill="#D9A066" />
<rect x="22" y="20" width="1" height="1" fill="#D9A066" />
<rect x="23" y="20" width="1" height="1" fill="#D9A066" />
<rect x="24" y="20" width="1" height="1" fill="#D9A066" />
<rect x="25" y="20" width="1" height="1" fill="#8F563B" />
<rect x="26" y="20" width="1" height="1" fill="#8F563B" />
<rect x="27" y="20" width="1" height="1" fill="#8F563B" />
<rect x="28" y="20" width="1" height="1" fill="#8F563B" />
<rect x="29" y="20" width="1" height="1" fill="#8F563B" />
<rect x="30" y="20" width="1" height="1" fill="#8F563B" />
<rect x="31" y="20" width="1" height="1" fill="#000000" />
<rect x="32" y="20" width="1" height="1" fill="#000000" />
<rect x="46" y="20" width="1" height="1" fill="#EFA3BE" />
<rect x="47" y="20" width="1" height="1" fill="#EFA3BE" />
<rect x="18" y="21" width="1" height="1" fill="#000000" />
<rect x="19" y="21" width="1" height="1" fill="#000000" />
<rect x="20" y="21" width="1" height="1" fill="#D9A066" />
<rect x="21" y="21" width="1" height="1" fill="#D9A066" />
<rect x="22" y="21" width="1" height="1" fill="#D9A066" />
<rect x="23" y="21" width="1" height="1" fill="#D9A066" />
<rect x="24" y="21" width="1" height="1" fill="#8F563B" />
<rect x="25" y="21" width="1" height="1" fill="#8F563B" />
<rect x="26" y="21" width="1" height="1" fill="#8F563B" />
<rect x="27" y="21" width="1" height="1" fill="#8F563B" />
<rect x="28" y="21" width="1" height="1" fill="#8F563B" />
<rect x="29" y="21" width="1" height="1" fill="#8F563B" />
<rect x="30" y="21" width="1" height="1" fill="#000000" />
<rect x="31" y="21" width="1" height="1" fill="#000000" />
<rect x="46" y="21" width="1" height="1" fill="#EFA3BE" />
<rect x="47" y="21" width="1" height="1" fill="#EFA3BE" />
<rect x="17" y="22" width="1" height="1" fill="#000000" />
<rect x="18" y="22" width="1" height="1" fill="#000000" />
<rect x="19" y="22" width="1" height="1" fill="#D9A066" />
<rect x="20" y="22" width="1" height="1" fill="#D9A066" />
<rect x="21" y="22" width="1" height="1" fill="#D9A066" />
<rect x="22" y="22" width="1" height="1" fill="#D9A066" />
<rect x="23" y="22" width="1" height="1" fill="#8F563B" />
<rect x="24" y="22" width="1" height="1" fill="#8F563B" />
<rect x="25" y="22" width="1" height="1" fill="#8F563B" />
<rect x="26" y="22" width="1" height="1" fill="#8F563B" />
<rect x="27" y="22" width="1" height="1" fill="#8F563B" />
<rect x="28" y="22" width="1" height="1" fill="#8F563B" />
<rect x="29" y="22" width="1" height="1" fill="#000000" />
<rect x="30" y="22" width="1" height="1" fill="#000000" />
<rect x="46" y="22" width="1" height="1" fill="#EFA3BE" />
<rect x="47" y="22" width="1" height="1" fill="#EFA3BE" />
<rect x="16" y="23" width="1" height="1" fill="#000000" />
<rect x="17" y="23" width="1" height="1" fill="#000000" />
<rect x="18" y="23" width="1" height="1" fill="#D9A066" />
<rect x="19" y="23" width="1" height="1" fill="#D9A066" />
<rect x="20" y="23" width="1" height="1" fill="#D9A066" />
<rect x="21" y="23" width="1" height="1" fill="#D9A066" />
<rect x="22" y="23" width="1" height="1" fill="#8F563B" />
<rect x="23" y="23" width="1" height="1" fill="#8F563B" />
<rect x="24" y="23" width="1" height="1" fill="#8F563B" />
<rect x="25" y="23" width="1" height="1" fill="#8F563B" />
<rect x="26" y="23" width="1" height="1" fill="#8F563B" />
<rect x="27" y="23" width="1" height="1" fill="#8F563B" />
<rect x="28" y="23" width="1" height="1" fill="#000000" />
<rect x="29" y="23" width="1" height="1" fill="#000000" />
<rect x="46" y="23" width="1" height="1" fill="#EFA3BE" />
<rect x="47" y="23" width="1" height="1" fill="#EFA3BE" />
<rect x="15" y="24" width="1" height="1" fill="#000000" />
<rect x="16" y="24" width="1" height="1" fill="#000000" />
<rect x="17" y="24" width="1" height="1" fill="#D9A066" />
<rect x="18" y="24" width="1" height="1" fill="#D9A066" />
<rect x="19" y="24" width="1" height="1" fill="#D9A066" />
<rect x="20" y="24" width="1" height="1" fill="#D9A066" />
<rect x="21" y="24" width="1" height="1" fill="#8F563B" />
<rect x="22" y="24" width="1" height="1" fill="#8F563B" />
<rect x="23" y="24" width="1" height="1" fill="#8F563B" />
<rect x="24" y="24" width="1" height="1" fill="#8F563B" />
<rect x="25" y="24" width="1" height="1" fill="#8F563B" />
<rect x="26" y="24" width="1" height="1" fill="#000000" />
<rect x="27" y="24" width="1" height="1" fill="#000000" />
<rect x="28" y="24" width="1" height="1" fill="#000000" />
<rect x="46" y="24" width="1" height="1" fill="#EFA3BE" />
<rect x="47" y="24" width="1" height="1" fill="#EFA3BE" />
<rect x="14" y="25" width="1" height="1" fill="#000000" />
<rect x="15" y="25" width="1" height="1" fill="#000000" />
<rect x="16" y="25" width="1" height="1" fill="#D9A066" />
<rect x="17" y="25" width="1" height="1" fill="#D9A066" />
<rect x="18" y="25" width="1" height="1" fill="#D9A066" />
<rect x="19" y="25" width="1" height="1" fill="#D9A066" />
<rect x="20" y="25" width="1" height="1" fill="#D9A066" />
<rect x="21" y="25" width="1" height="1" fill="#8F563B" />
<rect x="22" y="25" width="1" height="1" fill="#8F563B" />
<rect x="23" y="25" width="1" height="1" fill="#8F563B" />
<rect x="24" y="25" width="1" height="1" fill="#8F563B" />
<rect x="25" y="25" width="1" height="1" fill="#8F563B" />
<rect x="26" y="25" width="1" height="1" fill="#000000" />
<rect x="27" y="25" width="1" height="1" fill="#000000" />
<rect x="46" y="25" width="1" height="1" fill="#EFA3BE" />
<rect x="47" y="25" width="1" height="1" fill="#EFA3BE" />
<rect x="13" y="26" width="1" height="1" fill="#000000" />
<rect x="14" y="26" width="1" height="1" fill="#000000" />
<rect x="15" y="26" width="1" height="1" fill="#D9A066" />
<rect x="16" y="26" width="1" height="1" fill="#D9A066" />
<rect x="17" y="26" width="1" height="1" fill="#D9A066" />
<rect x="18" y="26" width="1" height="1" fill="#D9A066" />
<rect x="19" y="26" width="1" height="1" fill="#8F563B" />
<rect x="20" y="26" width="1" height="1" fill="#8F563B" />
<rect x="21" y="26" width="1" height="1" fill="#8F563B" />
<rect x="22" y="26" width="1" height="1" fill="#8F563B" />
<rect x="23" y="26" width="1" height="1" fill="#8F563B" />
<rect x="24" y="26" width="1" height="1" fill="#8F563B" />
<rect x="25" y="26" width="1" height="1" fill="#000000" />
<rect x="26" y="26" width="1" height="1" fill="#000000" />
<rect x="46" y="26" width="1" height="1" fill="#EFA3BE" />
<rect x="47" y="26" width="1" height="1" fill="#EFA3BE" />
<rect x="12" y="27" width="1" height="1" fill="#000000" />
<rect x="13" y="27" width="1" height="1" fill="#000000" />
<rect x="14" y="27" width="1" height="1" fill="#D9A066" />
<rect x="15" y="27" width="1" height="1" fill="#D9A066" />
<rect x="16" y="27" width="1" height="1" fill="#D9A066" />
<rect x="17" y="27" width="1" height="1" fill="#D9A066" />
<rect x="18" y="27" width="1" height="1" fill="#8F563B" />
<rect x="19" y="27" width="1" height="1" fill="#8F563B" />
<rect x="20" y="27" width="1" height="1" fill="#8F563B" />
<rect x="21" y="27" width="1" height="1" fill="#8F563B" />
<rect x="22" y="27" width="1" height="1" fill="#8F563B" />
<rect x="23" y="27" width="1" height="1" fill="#8F563B" />
<rect x="24" y="27" width="1" height="1" fill="#000000" />
<rect x="25" y="27" width="1" height="1" fill="#000000" />
<rect x="46" y="27" width="1" height="1" fill="#EFA3BE" />
<rect x="47" y="27" width="1" height="1" fill="#EFA3BE" />
<rect x="11" y="28" width="1" height="1" fill="#000000" />
<rect x="12" y="28" width="1" height="1" fill="#000000" />
<rect x="13" y="28" width="1" height="1" fill="#D9A066" />
<rect x="14" y="28" width="1" height="1" fill="#D9A066" />
<rect x="15" y="28" width="1" height="1" fill="#D9A066" />
<rect x="16" y="28" width="1" height="1" fill="#D9A066" />
<rect x="17" y="28" width="1" height="1" fill="#8F563B" />
<rect x="18" y="28" width="1" height="1" fill="#8F563B" />
<rect x="19" y="28" width="1" height="1" fill="#8F563B" />
<rect x="20" y="28" width="1" height="1" fill="#8F563B" />
<rect x="21" y="28" width="1" height="1" fill="#8F563B" />
<rect x="22" y="28" width="1" height="1" fill="#8F563B" />
<rect x="23" y="28" width="1" height="1" fill="#000000" />
<rect x="24" y="28" width="1" height="1" fill="#000000" />
<rect x="46" y="28" width="1" height="1" fill="#EFA3BE" />
<rect x="47" y="28" width="1" height="1" fill="#EFA3BE" />
<rect x="10" y="29" width="1" height="1" fill="#000000" />
<rect x="11" y="29" width="1" height="1" fill="#000000" />
<rect x="12" y="29" width="1" height="1" fill="#D9A066" />
<rect x="13" y="29" width="1" height="1" fill="#D9A066" />
<rect x="14" y="29" width="1" height="1" fill="#D9A066" />
<rect x="15" y="29" width="1" height="1" fill="#D9A066" />
<rect x="16" y="29" width="1" height="1" fill="#8F563B" />
<rect x="17" y="29" width="1" height="1" fill="#8F563B" />
<rect x="18" y="29" width="1" height="1" fill="#8F563B" />
<rect x="19" y="29" width="1" height="1" fill="#8F563B" />
<rect x="20" y="29" width="1" height="1" fill="#8F563B" />
<rect x="21" y="29" width="1" height="1" fill="#8F563B" />
<rect x="22" y="29" width="1" height="1" fill="#000000" />
<rect x="23" y="29" width="1" height="1" fill="#000000" />
<rect x="46" y="29" width="1" height="1" fill="#EFA3BE" />
<rect x="47" y="29" width="1" height="1" fill="#EFA3BE" />
<rect x="9" y="30" width="1" height="1" fill="#000000" />
<rect x="10" y="30" width="1" height="1" fill="#000000" />
<rect x="11" y="30" width="1" height="1" fill="#D9A066" />
<rect x="12" y="30" width="1" height="1" fill="#D9A066" />
<rect x="13" y="30" width="1" height="1" fill="#D9A066" />
<rect x="14" y="30" width="1" height="1" fill="#D9A066" />
<rect x="15" y="30" width="1" height="1" fill="#8F563B" />
<rect x="16" y="30" width="1" height="1" fill="#8F563B" />
<rect x="17" y="30" width="1" height="1" fill="#8F563B" />
<rect x="18" y="30" width="1" height="1" fill="#8F563B" />
<rect x="19" y="30" width="1" height="1" fill="#8F563B" />
<rect x="20" y="30" width="1" height="1" fill="#8F563B" />
<rect x="21" y="30" width="1" height="1" fill="#000000" />
<rect x="22" y="30" width="1" height="1" fill="#000000" />
<rect x="46" y="30" width="1" height="1" fill="#EFA3BE" />
<rect x="47" y="30" width="1" height="1" fill="#EFA3BE" />
<rect x="8" y="31" width="1" height="1" fill="#000000" />
<rect x="9" y="31" width="1" height="1" fill="#000000" />
<rect x="10" y="31" width="1" height="1" fill="#000000" />
<rect x="11" y="31" width="1" height="1" fill="#D9A066" />
<rect x="12" y="31" width="1" height="1" fill="#D9A066" />
<rect x="13" y="31" width="1" height="1" fill="#D9A066" />
<rect x="14" y="31" width="1" height="1" fill="#8F563B" />
<rect x="15" y="31" width="1" height="1" fill="#8F563B" />
<rect x="16" y="31" width="1" height="1" fill="#8F563B" />
<rect x="17" y="31" width="1" height="1" fill="#8F563B" />
<rect x="18" y="31" width="1" height="1" fill="#8F563B" />
<rect x="19" y="31" width="1" height="1" fill="#8F563B" />
<rect x="20" y="31" width="1" height="1" fill="#000000" />
<rect x="21" y="31" width="1" height="1" fill="#000000" />
<rect x="46" y="31" width="1" height="1" fill="#EFA3BE" />
<rect x="47" y="31" width="1" height="1" fill="#EFA3BE" />
<rect x="7" y="32" width="1" height="1" fill="#000000" />
<rect x="8" y="32" width="1" height="1" fill="#000000" />
<rect x="9" y="32" width="1" height="1" fill="#000000" />
<rect x="10" y="32" width="1" height="1" fill="#D9A066" />
<rect x="11" y="32" width="1" height="1" fill="#D9A066" />
<rect x="12" y="32" width="1" height="1" fill="#D9A066" />
<rect x="13" y="32" width="1" height="1" fill="#8F563B" />
<rect x="14" y="32" width="1" height="1" fill="#8F563B" />
<rect x="15" y="32" width="1" height="1" fill="#8F563B" />
<rect x="16" y="32" width="1" height="1" fill="#8F563B" />
<rect x="17" y="32" width="1" height="1" fill="#8F563B" />
<rect x="18" y="32" width="1" height="1" fill="#8F563B" />
<rect x="19" y="32" width="1" height="1" fill="#000000" />
<rect x="20" y="32" width="1" height="1" fill="#000000" />
<rect x="46" y="32" width="1" height="1" fill="#EFA3BE" />
<rect x="47" y="32" width="1" height="1" fill="#EFA3BE" />
<rect x="6" y="33" width="1" height="1" fill="#000000" />
<rect x="7" y="33" width="1" height="1" fill="#000000" />
<rect x="8" y="33" width="1" height="1" fill="#D9A066" />
<rect x="9" y="33" width="1" height="1" fill="#D9A066" />
<rect x="10" y="33" width="1" height="1" fill="#D9A066" />
<rect x="11" y="33" width="1" height="1" fill="#D9A066" />
<rect x="12" y="33" width="1" height="1" fill="#8F563B" />
<rect x="13" y="33" width="1" height="1" fill="#8F563B" />
<rect x="14" y="33" width="1" height="1" fill="#8F563B" />
<rect x="15" y="33" width="1" height="1" fill="#8F563B" />
<rect x="16" y="33" width="1" height="1" fill="#8F563B" />
<rect x="17" y="33" width="1" height="1" fill="#8F563B" />
<rect x="18" y="33" width="1" height="1" fill="#000000" />
<rect x="19" y="33" width="1" height="1" fill="#000000" />
<rect x="46" y="33" width="1" height="1" fill="#EFA3BE" />
<rect x="47" y="33" width="1" height="1" fill="#EFA3BE" />
<rect x="5" y="34" width="1" height="1" fill="#000000" />
<rect x="6" y="34" width="1" height="1" fill="#000000" />
<rect x="7" y="34" width="1" height="1" fill="#D9A066" />
<rect x="8" y="34" width="1" height="1" fill="#D9A066" />
<rect x="9" y="34" width="1" height="1" fill="#D9A066" />
<rect x="10" y="34" width="1" height="1" fill="#D9A066" />
<rect x="11" y="34" width="1" height="1" fill="#8F563B" />
<rect x="12" y="34" width="1" height="1" fill="#8F563B" />
<rect x="13" y="34" width="1" height="1" fill="#8F563B" />
<rect x="14" y="34" width="1" height="1" fill="#8F563B" />
<rect x="15" y="34" width="1" height="1" fill="#8F563B" />
<rect x="16" y="34" width="1" height="1" fill="#000000" />
<rect x="17" y="34" width="1" height="1" fill="#000000" />
<rect x="18" y="34" width="1" height="1" fill="#000000" />
<rect x="46" y="34" width="1" height="1" fill="#EFA3BE" />
<rect x="47" y="34" width="1" height="1" fill="#EFA3BE" />
<rect x="5" y="35" width="1" height="1" fill="#000000" />
<rect x="6" y="35" width="1" height="1" fill="#000000" />
<rect x="7" y="35" width="1" height="1" fill="#D9A066" />
<rect x="8" y="35" width="1" height="1" fill="#D9A066" />
<rect x="9" y="35" width="1" height="1" fill="#D9A066" />
<rect x="10" y="35" width="1" height="1" fill="#8F563B" />
<rect x="11" y="35" width="1" height="1" fill="#8F563B" />
<rect x="12" y="35" width="1" height="1" fill="#8F563B" />
<rect x="13" y="35" width="1" height="1" fill="#8F563B" />
<rect x="14" y="35" width="1" height="1" fill="#8F563B" />
<rect x="15" y="35" width="1" height="1" fill="#000000" />
<rect x="16" y="35" width="1" height="1" fill="#000000" />
<rect x="46" y="35" width="1" height="1" fill="#EFA3BE" />
<rect x="47" y="35" width="1" height="1" fill="#EFA3BE" />
<rect x="4" y="36" width="1" height="1" fill="#000000" />
<rect x="5" y="36" width="1" height="1" fill="#000000" />
<rect x="6" y="36" width="1" height="1" fill="#D9A066" />
<rect x="7" y="36" width="1" height="1" fill="#D9A066" />
<rect x="8" y="36" width="1" height="1" fill="#D9A066" />
<rect x="9" y="36" width="1" height="1" fill="#8F563B" />
<rect x="10" y="36" width="1" height="1" fill="#8F563B" />
<rect x="11" y="36" width="1" height="1" fill="#8F563B" />
<rect x="12" y="36" width="1" height="1" fill="#8F563B" />
<rect x="13" y="36" width="1" height="1" fill="#8F563B" />
<rect x="14" y="36" width="1" height="1" fill="#000000" />
<rect x="15" y="36" width="1" height="1" fill="#000000" />
<rect x="46" y="36" width="1" height="1" fill="#EFA3BE" />
<rect x="47" y="36" width="1" height="1" fill="#EFA3BE" />
<rect x="3" y="37" width="1" height="1" fill="#000000" />
<rect x="4" y="37" width="1" height="1" fill="#000000" />
<rect x="5" y="37" width="1" height="1" fill="#000000" />
<rect x="6" y="37" width="1" height="1" fill="#D9A066" />
<rect x="7" y="37" width="1" height="1" fill="#D9A066" />
<rect x="8" y="37" width="1" height="1" fill="#8F563B" />
<rect x="9" y="37" width="1" height="1" fill="#8F563B" />
<rect x="10" y="37" width="1" height="1" fill="#8F563B" />
<rect x="11" y="37" width="1" height="1" fill="#8F563B" />
<rect x="12" y="37" width="1" height="1" fill="#8F563B" />
<rect x="13" y="37" width="1" height="1" fill="#000000" />
<rect x="14" y="37" width="1" height="1" fill="#000000" />
<rect x="46" y="37" width="1" height="1" fill="#EFA3BE" />
<rect x="47" y="37" width="1" height="1" fill="#EFA3BE" />
<rect x="3" y="38" width="1" height="1" fill="#000000" />
<rect x="4" y="38" width="1" height="1" fill="#FFE3C8" />
<rect x="5" y="38" width="1" height="1" fill="#000000" />
<rect x="6" y="38" width="1" height="1" fill="#000000" />
<rect x="7" y="38" width="1" height="1" fill="#8F563B" />
<rect x="8" y="38" width="1" height="1" fill="#8F563B" />
<rect x="9" y="38" width="1" height="1" fill="#8F563B" />
<rect x="10" y="38" width="1" height="1" fill="#8F563B" />
<rect x="11" y="38" width="1" height="1" fill="#8F563B" />
<rect x="12" y="38" width="1" height="1" fill="#000000" />
<rect x="13" y="38" width="1" height="1" fill="#000000" />
<rect x="46" y="38" width="1" height="1" fill="#EFA3BE" />
<rect x="47" y="38" width="1" height="1" fill="#EFA3BE" />
<rect x="2" y="39" width="1" height="1" fill="#000000" />
<rect x="3" y="39" width="1" height="1" fill="#FFE3C8" />
<rect x="4" y="39" width="1" height="1" fill="#FFE3C8" />
<rect x="5" y="39" width="1" height="1" fill="#FFE3C8" />
<rect x="6" y="39" width="1" height="1" fill="#000000" />
<rect x="7" y="39" width="1" height="1" fill="#000000" />
<rect x="8" y="39" width="1" height="1" fill="#000000" />
<rect x="9" y="39" width="1" height="1" fill="#8F563B" />
<rect x="10" y="39" width="1" height="1" fill="#8F563B" />
<rect x="11" y="39" width="1" height="1" fill="#000000" />
<rect x="12" y="39" width="1" height="1" fill="#000000" />
<rect x="46" y="39" width="1" height="1" fill="#EFA3BE" />
<rect x="47" y="39" width="1" height="1" fill="#EFA3BE" />
<rect x="2" y="40" width="1" height="1" fill="#000000" />
<rect x="3" y="40" width="1" height="1" fill="#FFE3C8" />
<rect x="4" y="40" width="1" height="1" fill="#FFE3C8" />
<rect x="5" y="40" width="1" height="1" fill="#FFE3C8" />
<rect x="6" y="40" width="1" height="1" fill="#D9A066" />
<rect x="7" y="40" width="1" height="1" fill="#000000" />
<rect x="8" y="40" width="1" height="1" fill="#000000" />
<rect x="9" y="40" width="1" height="1" fill="#8F563B" />
<rect x="10" y="40" width="1" height="1" fill="#000000" />
<rect x="11" y="40" width="1" height="1" fill="#000000" />
<rect x="46" y="40" width="1" height="1" fill="#EFA3BE" />
<rect x="47" y="40" width="1" height="1" fill="#EFA3BE" />
<rect x="2" y="41" width="1" height="1" fill="#000000" />
<rect x="3" y="41" width="1" height="1" fill="#FFE3C8" />
<rect x="4" y="41" width="1" height="1" fill="#FFE3C8" />
<rect x="5" y="41" width="1" height="1" fill="#D9A066" />
<rect x="6" y="41" width="1" height="1" fill="#D9A066" />
<rect x="7" y="41" width="1" height="1" fill="#000000" />
<rect x="8" y="41" width="1" height="1" fill="#000000" />
<rect x="9" y="41" width="1" height="1" fill="#000000" />
<rect x="10" y="41" width="1" height="1" fill="#000000" />
<rect x="46" y="41" width="1" height="1" fill="#EFA3BE" />
<rect x="47" y="41" width="1" height="1" fill="#EFA3BE" />
<rect x="2" y="42" width="1" height="1" fill="#000000" />
<rect x="3" y="42" width="1" height="1" fill="#FFE3C8" />
<rect x="4" y="42" width="1" height="1" fill="#D9A066" />
<rect x="5" y="42" width="1" height="1" fill="#D9A066" />
<rect x="6" y="42" width="1" height="1" fill="#D9A066" />
<rect x="7" y="42" width="1" height="1" fill="#D9A066" />
<rect x="8" y="42" width="1" height="1" fill="#000000" />
<rect x="9" y="42" width="1" height="1" fill="#000000" />
<rect x="46" y="42" width="1" height="1" fill="#EFA3BE" />
<rect x="47" y="42" width="1" height="1" fill="#EFA3BE" />
<rect x="2" y="43" width="1" height="1" fill="#000000" />
<rect x="3" y="43" width="1" height="1" fill="#000000" />
<rect x="4" y="43" width="1" height="1" fill="#D9A066" />
<rect x="5" y="43" width="1" height="1" fill="#D9A066" />
<rect x="6" y="43" width="1" height="1" fill="#000000" />
<rect x="7" y="43" width="1" height="1" fill="#000000" />
<rect x="8" y="43" width="1" height="1" fill="#000000" />
<rect x="46" y="43" width="1" height="1" fill="#EFA3BE" />
<rect x="47" y="43" width="1" height="1" fill="#EFA3BE" />
<rect x="2" y="44" width="1" height="1" fill="#000000" />
<rect x="3" y="44" width="1" height="1" fill="#000000" />
<rect x="4" y="44" width="1" height="1" fill="#000000" />
<rect x="5" y="44" width="1" height="1" fill="#000000" />
<rect x="6" y="44" width="1" height="1" fill="#000000" />
<rect x="7" y="44" width="1" height="1" fill="#000000" />
<rect x="46" y="44" width="1" height="1" fill="#EFA3BE" />
<rect x="47" y="44" width="1" height="1" fill="#EFA3BE" />
<rect x="46" y="45" width="1" height="1" fill="#EFA3BE" />
<rect x="47" y="45" width="1" height="1" fill="#EFA3BE" />
<rect x="0" y="46" width="1" height="1" fill="#EFA3BE" />
<rect x="1" y="46" width="1" height="1" fill="#EFA3BE" />
<rect x="2" y="46" width="1" height="1" fill="#EFA3BE" />
<rect x="3" y="46" width="1" height="1" fill="#EFA3BE" />
<rect x="4" y="46" width="1" height="1" fill="#EFA3BE" />
<rect x="5" y="46" width="1" height="1" fill="#EFA3BE" />
<rect x="6" y="46" width="1" height="1" fill="#EFA3BE" />
<rect x="7" y="46" width="1" height="1" fill="#EFA3BE" />
<rect x="8" y="46" width="1" height="1" fill="#EFA3BE" />
<rect x="9" y="46" width="1" height="1" fill="#EFA3BE" />
<rect x="10" y="46" width="1" height="1" fill="#EFA3BE" />
<rect x="11" y="46" width="1" height="1" fill="#EFA3BE" />
<rect x="12" y="46" width="1" height="1" fill="#EFA3BE" />
<rect x="13" y="46" width="1" height="1" fill="#EFA3BE" />
<rect x="14" y="46" width="1" height="1" fill="#EFA3BE" />
<rect x="15" y="46" width="1" height="1" fill="#EFA3BE" />
<rect x="16" y="46" width="1" height="1" fill="#EFA3BE" />
<rect x="17" y="46" width="1" height="1" fill="#EFA3BE" />
<rect x="18" y="46" width="1" height="1" fill="#EFA3BE" />
<rect x="19" y="46" width="1" height="1" fill="#EFA3BE" />
<rect x="20" y="46" width="1" height="1" fill="#EFA3BE" />
<rect x="21" y="46" width="1" height="1" fill="#EFA3BE" />
<rect x="22" y="46" width="1" height="1" fill="#EFA3BE" />
<rect x="23" y="46" width="1" height="1" fill="#EFA3BE" />
<rect x="24" y="46" width="1" height="1" fill="#EFA3BE" />
<rect x="25" y="46" width="1" height="1" fill="#EFA3BE" />
<rect x="26" y="46" width="1" height="1" fill="#EFA3BE" />
<rect x="27" y="46" width="1" height="1" fill="#EFA3BE" />
<rect x="28" y="46" width="1" height="1" fill="#EFA3BE" />
<rect x="29" y="46" width="1" height="1" fill="#EFA3BE" />
<rect x="30" y="46" width="1" height="1" fill="#EFA3BE" />
<rect x="31" y="46" width="1" height="1" fill="#EFA3BE" />
<rect x="32" y="46" width="1" height="1" fill="#EFA3BE" />
<rect x="33" y="46" width="1" height="1" fill="#EFA3BE" />
<rect x="34" y="46" width="1" height="1" fill="#EFA3BE" />
<rect x="35" y="46" width="1" height="1" fill="#EFA3BE" />
<rect x="36" y="46" width="1" height="1" fill="#EFA3BE" />
<rect x="37" y="46" width="1" height="1" fill="#EFA3BE" />
<rect x="38" y="46" width="1" height="1" fill="#EFA3BE" />
<rect x="39" y="46" width="1" height="1" fill="#EFA3BE" />
<rect x="40" y="46" width="1" height="1" fill="#EFA3BE" />
<rect x="41" y="46" width="1" height="1" fill="#EFA3BE" />
<rect x="42" y="46" width="1" height="1" fill="#EFA3BE" />
<rect x="43" y="46" width="1" height="1" fill="#EFA3BE" />
<rect x="44" y="46" width="1" height="1" fill="#EFA3BE" />
<rect x="45" y="46" width="1" height="1" fill="#EFA3BE" />
<rect x="46" y="46" width="1" height="1" fill="#EFA3BE" />
<rect x="47" y="46" width="1" height="1" fill="#EFA3BE" />
<rect x="0" y="47" width="1" height="1" fill="#EFA3BE" />
<rect x="1" y="47" width="1" height="1" fill="#EFA3BE" />
<rect x="2" y="47" width="1" height="1" fill="#EFA3BE" />
<rect x="3" y="47" width="1" height="1" fill="#EFA3BE" />
<rect x="4" y="47" width="1" height="1" fill="#EFA3BE" />
<rect x="5" y="47" width="1" height="1" fill="#EFA3BE" />
<rect x="6" y="47" width="1" height="1" fill="#EFA3BE" />
<rect x="7" y="47" width="1" height="1" fill="#EFA3BE" />
<rect x="8" y="47" width="1" height="1" fill="#EFA3BE" />
<rect x="9" y="47" width="1" height="1" fill="#EFA3BE" />
<rect x="10" y="47" width="1" height="1" fill="#EFA3BE" />
<rect x="11" y="47" width="1" height="1" fill="#EFA3BE" />
<rect x="12" y="47" width="1" height="1" fill="#EFA3BE" />
<rect x="13" y="47" width="1" height="1" fill="#EFA3BE" />
<rect x="14" y="47" width="1" height="1" fill="#EFA3BE" />
<rect x="15" y="47" width="1" height="1" fill="#EFA3BE" />
<rect x="16" y="47" width="1" height="1" fill="#EFA3BE" />
<rect x="17" y="47" width="1" height="1" fill="#EFA3BE" />
<rect x="18" y="47" width="1" height="1" fill="#EFA3BE" />
<rect x="19" y="47" width="1" height="1" fill="#EFA3BE" />
<rect x="20" y="47" width="1" height="1" fill="#EFA3BE" />
<rect x="21" y="47" width="1" height="1" fill="#EFA3BE" />
<rect x="22" y="47" width="1" height="1" fill="#EFA3BE" />
<rect x="23" y="47" width="1" height="1" fill="#EFA3BE" />
<rect x="24" y="47" width="1" height="1" fill="#EFA3BE" />
<rect x="25" y="47" width="1" height="1" fill="#EFA3BE" />
<rect x="26" y="47" width="1" height="1" fill="#EFA3BE" />
<rect x="27" y="47" width="1" height="1" fill="#EFA3BE" />
<rect x="28" y="47" width="1" height="1" fill="#EFA3BE" />
<rect x="29" y="47" width="1" height="1" fill="#EFA3BE" />
<rect x="30" y="47" width="1" height="1" fill="#EFA3BE" />
<rect x="31" y="47" width="1" height="1" fill="#EFA3BE" />
<rect x="32" y="47" width="1" height="1" fill="#EFA3BE" />
<rect x="33" y="47" width="1" height="1" fill="#EFA3BE" />
<rect x="34" y="47" width="1" height="1" fill="#EFA3BE" />
<rect x="35" y="47" width="1" height="1" fill="#EFA3BE" />
<rect x="36" y="47" width="1" height="1" fill="#EFA3BE" />
<rect x="37" y="47" width="1" height="1" fill="#EFA3BE" />
<rect x="38" y="47" width="1" height="1" fill="#EFA3BE" />
<rect x="39" y="47" width="1" height="1" fill="#EFA3BE" />
<rect x="40" y="47" width="1" height="1" fill="#EFA3BE" />
<rect x="41" y="47" width="1" height="1" fill="#EFA3BE" />
<rect x="42" y="47" width="1" height="1" fill="#EFA3BE" />
<rect x="43" y="47" width="1" height="1" fill="#EFA3BE" />
<rect x="44" y="47" width="1" height="1" fill="#EFA3BE" />
<rect x="45" y="47" width="1" height="1" fill="#EFA3BE" />
<rect x="46" y="47" width="1" height="1" fill="#EFA3BE" />
<rect x="47" y="47" width="1" height="1" fill="#EFA3BE" />
</svg>